<svg xmlns="http://www.w3.org/2000/svg" xmlns:xlink="http://www.w3.org/1999/xlink" id="slovakia" x="0" y="0" width="870" height="435" viewBox="0 0 870 435" xml:space="preserve" version="1.1">
  <path id="ssk" d="M851.9 100.6l-15.1 2.7 -5-11.7 -14.5 2.1 -11.5-8 -8.9-1.5 -12.1-6.7 0.9-11.4 -9.4-5.3 1.1-8.1 -11.6-0.5 -7.7-12L748 50.5l-4.7 0.7 -5.3-13.7 -6.3 0 -6.4-7.6 -9.8 1.4 -9.7 7.3L693.7 37l-21.8-8.2 -12.3 14L644 35l-7.8 5.2 3.5 10.3 -10.3 4.7 -1.9 9.5L617.5 65.8l-9-8.2L598.5 57l-12.8-19.5 -7.3 5.1 -9.2-1.4 -1.2 8.6 -17.5-10.4 -10 7.9 -14-1.8 -1.5 11.8 -24 2.3 -8.3 14.7 0.2 21.9L474.8 83l-16.2 8.6 -14.5 1.7 5-14.1 -2.8-8.9 3.4-8.9 -1.2-14.4 -18.5 1.5 -7.2-13.8 -6.1 2 -8.9-11.7 -0.6-12.8 -8.3-11.3 -7.7 0.9 -10.2 9.3v8.8l-16.2-0.3 -2.7 12.2 -7.1 10.5 1.8 6 -9.3-1.2L340.4 43.5l-9.7 5.1L320.2 47l3.7-13.8 -9.7-11.3L297.6 23l-13.3 7.8 -6.4-4.9 -5.3 3.9 -7-6.8L255.3 31l-2.6 11.8 -17.2 10.3V72.3l-21.9 2 -7.8 2.1 -6.8 9.2L200.3 95l-7.1 15.7 -2.7 21.9 -11.1 6 -4.4-2.3 -9.5 2.3 -0.9 13.9 -9.2 8.9L140.6 162l-2.9 13.6 -16.9 3.3 -12.4 6.3 -8.6-6.9 -13.5 6.3 -9.7-7.4 -10.2-1 -4.8-7.5 -9.2 4.6 -7 9.3 -1.8 9 -11.4 7.3 -4.5 15.6 -3.9 1.6 -0.8 8.7 -5.9 5.4v10.5l3.6 9.1 -5.7 3.1 -2.5 10 -9 5v24.8l7.4 0.9 -1.2 8.8 9.5 8.5 3.1 22.7 8.8 4 7.6 13.1 -0.7 13 9.6 7.5 10.8-3.6 4.1 3.6 13 1.1 3.4 5.8 11.4 8.4 6 12.1 16.3 17.5 8.2-0.9 12.8 10.1 4.4 7.4 23.6 0.7 10-4.3 8.8 3.1 15.1-6.9 27.3 8.4 21-8.4 13.1 3.4 18.1 0.9 14.1-7.8 4.4-7.5 15.1 1.4 -5.4-13 -7.2-2.7 -0.6-16.1 8.2-14.6 -1.3-7.9 21.3-1.1 7.6-4.6 7.8 4.1 10.9-6.2 13.5 5.3 16-9.8 11.9 3.1 14.8-3.4 1.8-17.9 6.5-11.3 14-6.5 3.3 8.7 17.5 4.5 0.8 7.4h12.8l6.2 8.6L482 329.8l11.4-2.6 1.9-4.3 7.1-2.2 0.8-8.3 6.1 0.2 8.9-4.1 0.3-5.3 10.4 4.4 6.8-14.9 7.2-3.1L544.3 271l6.9-9.8 7.3-5.2v-8.5l3.8-3.7 10.1-1.1 8.3-5 3.2 1.9 19.2-8.6 11.3 7.4 7.8-0.7 7.3 8.5 15.5-2 6.7 9.2 19.3-13.6 9.8 6.8 6.6-10.8 13.5-6.5 12.4 6.5 1.8 9.8 13.7-1.5 0.8 12 7.8 6.9 3.8 16.6 20.9 5.7 16.5-13.5 23.5 1.6 11.6-6.6 -4-13.4 0.5-27.1 9.5-10.6 5.8-10.7 10.9-4.2 3.7-10.6 -4.5-9.3 7.3-8.4 -1.2-11.8 7.3-22.4 14.6-14 1.7-17.4L851.9 100.6z"/>
  <path id="kba" d="M95.2 301.6L75.3 262.8 77.2 250.7 70.9 249 83.8 230.5 78.5 222.3 50.4 245.9 20.7 249.8 15 252.9 12.5 262.8 3.5 267.8 3.5 292.6 10.8 293.6 9.6 302.4 19.1 310.8 22.2 333.5 31 337.5 38.6 350.6 37.9 363.6 47.5 371.1 58.3 367.5 62.3 371.1 78.9 352.9 71.4 348.3 82.1 340.4 98 337.5 109.3 310.8z"/>
  <path id="ktt" d="M154.8 252.4L175.7 229.1 144.2 224.9 137.1 215.9 110.2 224.8 82.8 193.2 86.3 184.5 76.6 177.1 66.3 176.1 61.5 168.6 52.3 173.2 45.3 182.5 43.5 191.5 32.1 198.8 27.6 214.4 23.7 216 22.9 224.7 17.1 230.1 17.1 240.7 20.7 249.8 50.4 245.9 78.5 222.3 83.8 230.5 70.9 249 77.2 250.7 75.3 262.8 95.2 301.6 109.3 310.8 98 337.5 82.1 340.4 71.4 348.3 78.9 352.9 62.3 371.1 75.3 372.3 78.8 378.1 90.2 386.5 96.3 398.6 112.6 416.1 120.8 415.1 133.7 425.3 161.1 382.4 160.7 360.5 150.4 356.4 144.5 341.8 159.6 322.9 156 297.6 173.5 267.3z"/>
  <path id="knr" d="M302 334L305.6 301.2 291.2 275.8 262.4 296.3 250.1 248.3 225.8 257.8 212.8 228 178 205.7 175.7 229.1 154.8 252.4 173.5 267.3 156 297.6 157.1 305.9 159.6 322.9 144.5 341.8 150.4 356.4 160.7 360.5 161.1 382.4 133.7 425.3 138.1 432.6 161.7 433.3 171.7 429 180.5 432.1 195.6 425.3 222.8 433.6 243.8 425.3 257 428.6 275.1 429.5 289.2 421.7 293.6 414.3 308.7 415.6 303.3 402.6 296.1 399.9 295.5 383.8 303.6 369.2 302.3 361.3 323.6 360.1 331.2 355.5 338 325.5z"/>
  <path id="ktn" d="M281.8 172.3l4.3-16.7 -21.3-4.5 -7.7 6.9 -12.8-12.8 19.8-3.2L265.6 114l-20.9-21.6 -9.2-20.1 -21.9 2 -7.8 2.1 -6.8 9.2L200.3 95l-7.1 15.7 -2.7 21.9 -11.1 6 -4.4-2.3 -9.5 2.3 -0.9 13.9 -9.2 8.9L140.6 162l-2.9 13.6 -16.9 3.3 -12.4 6.3 -8.6-6.9 -13.5 6.3 -3.6 8.7 27.4 31.6 26.9-8.9 7.2 9 31.4 4.2 2.3-23.4 34.8 22.3 13 29.8 24.3-9.6 30.7-17.6 22.4-31.4L281.8 172.3z"/>
  <path id="kpo" d="M851.9 100.6l-15.1 2.7 -5-11.7 -14.5 2.1 -11.5-8 -8.9-1.5 -12.1-6.7 0.9-11.4 -9.4-5.3 1.1-8.1 -11.6-0.5 -7.7-12L748 50.5l-4.7 0.7 -5.3-13.7 -6.3 0 -6.4-7.6 -9.8 1.4 -9.7 7.3L693.7 37l-21.8-8.2 -12.3 14L644 35l-7.8 5.2 3.5 10.3 -10.3 4.7 -1.9 9.5L617.5 65.8l-9-8.2L598.5 57l-12.8-19.5 -7.3 5.1 -9.2-1.4 -1.2 8.6 -17.5-10.4 -10 7.9 -14-1.8 -1.5 11.8 -24 2.3 -8.3 14.7 0.2 21.9L474.8 83l-16.2 8.6 7.8 18.1 18.5 18.7L476.8 138.5l11.2 21.8 31.2 7.7 6.7-10.5L523.8 149l19.4-10.7 17.2-2 15.4 11L591.5 144l2.2-8.2 19 5.3 22.7 17.7 37.7 5.7 -0.8 12.7 18.9-7 -3.5-8.9 18.1-2.8 10.3 20.7 27.4 3.7 7.4-30.3 22.8 3.3 1.2 8.7h23l8.8-10.1 1.6-8 8.7-4.7 6.3 15.8 18.3 3.3 7.3-22.4 14.6-14 1.7-17.4L851.9 100.6z"/>
  <path id="kza" d="M476.8 138.5L485 128.4 466.5 109.7 458.7 91.6 444.2 93.3 449.2 79.2 446.3 70.3 449.7 61.4 448.5 47 430 48.5 422.8 34.7 416.7 36.7 407.8 24.9 407.2 12.1 398.8 0.8 391.2 1.7 381 10.9 381 19.7 364.8 19.3 362.2 31.6 355.1 42 356.8 48 347.5 46.8 340.4 43.5 330.7 48.6 320.2 47 323.8 33.2 314.2 21.8 297.6 23 284.3 30.8 277.9 25.9 272.6 29.8 265.6 23 255.3 31 252.7 42.8 235.5 53.2 235.5 72.3 244.7 92.4 265.6 114 264.2 141.9 244.3 145.1 257.1 157.9 264.8 151 273.8 152.9 286.1 155.5 281.8 172.3 303.2 199.3 331.7 198.7 329.5 179.7 333.2 169.2 347.4 169.7 364.3 164.9 373.5 175.1 387 154.7 420 149.8 443 164.3 488.1 160.3z"/>
  <path id="kbb" d="M529.1 258.3l4.3-28.5 -22.2-29.3 -2.5-15.7 10.7-16.7 -31.2-7.7 -45.1 4 -23-14.5 -33 4.8 -4.4 6.6 -9.1 13.8 -9.2-10.2 -16.6 4.8 -14.5-0.5 -3.7 10.5 2.2 19 -28.5 0.6 -22.4 31.4 -30.7 17.6 12.2 48 28.8-20.5 14.4 25.4L302 334l36-8.5 -6.7 30 7.8 4.1 10.9-6.2 13.5 5.3 16-9.8 11.9 3.1 14.8-3.4 1.8-17.9 6.5-11.3 14-6.5 3.3 8.7 17.5 4.5 0.8 7.4h12.8l6.2 8.6L482 329.8l11.4-2.6 1.9-4.3 7.1-2.2 0.8-8.3 6.1 0.2 8.9-4.1 0.3-5.3 10.4 4.4 6.8-14.9 7.2-3.1L544.3 271l6.9-9.8L529.1 258.3z"/>
  <path id="kke" d="M842.5 172.5l-1.2-11.8 -18.3-3.3 -6.3-15.8 -8.7 4.7 -1.6 8 -8.8 10.1h-23l-1.2-8.7 -22.8-3.3 -7.4 30.3 -27.4-3.7 -10.3-20.7 -18.1 2.8 3.5 8.9 -18.9 7 0.8-12.7 -37.7-5.7 -22.7-17.7 -19-5.3L591.5 144l-15.7 3.3 -15.4-11 -17.2 2L523.8 149l2.2 8.5 -17.4 27.2 2.5 15.7 22.3 29.3 -4.2 28.5 22.2 2.9 7.3-5.2v-8.5l3.8-3.7 10.1-1.1 8.3-5 3.2 1.9 19.2-8.6 11.3 7.4 7.8-0.7 7.3 8.5 15.5-2 6.7 9.2 19.3-13.6 9.8 6.8 6.6-10.8 13.5-6.5 12.4 6.5 1.8 9.8 13.7-1.5 0.8 12 7.8 6.9 3.8 16.6 20.9 5.7 16.5-13.5 23.5 1.6 11.6-6.6 -4-13.4 0.5-27.1 9.5-10.6 5.8-10.7 10.9-4.2 3.7-10.6 -4.5-9.3L842.5 172.5z"/>
  <path id="oma" d="M48.1 312.6L55.3 284.5 75.3 262.8 77.2 250.7 70.9 249 83.8 230.5 78.5 222.3 50.4 245.9 20.7 249.8 15 252.9 12.5 262.8 3.5 267.8 3.5 292.6 10.8 293.6 9.6 302.4 19.1 310.8z"/>
  <path id="opk" d="M48.1 312.6L57.3 320.4 95.2 301.6 75.3 262.8 55.3 284.5z"/>
  <path id="oba" d="M19.1 310.8L48.1 312.6 57.3 320.4 68.6 343.3 61.7 347.3 56.2 357.5 58.3 367.5 47.5 371.1 37.9 363.6 38.6 350.6 31 337.5 22.2 333.5z"/>
  <path id="osc" d="M95.2 301.6L57.3 320.4 68.6 343.3 61.7 347.3 56.2 357.5 58.3 367.5 62.3 371.1 78.9 352.9 71.4 348.3 82.1 340.4 98 337.5 109.3 310.8z"/>
  <path id="ose" d="M20.7 249.8L17.1 240.7 17.1 230.1 22.9 224.7 23.7 216 27.6 214.4 67.3 210.8 82.8 193.2 110.2 224.8 75.3 262.8 77.2 250.7 70.9 249 83.8 230.5 78.5 222.3 50.4 245.9z"/>
  <path id="osi" d="M27.6 214.4L67.3 210.8 82.8 193.2 86.3 184.5 76.6 177.1 66.3 176.1 61.5 168.6 52.3 173.2 45.3 182.5 43.5 191.5 32.1 198.8z"/>
  <path id="ott" d="M110.2 224.8L75.3 262.8 95.2 301.6 109.3 310.8 141.6 296.3 132.6 256.4 112.3 242.4z"/>
  <path id="oga" d="M156 297.6L141.6 296.3 109.3 310.8 98 337.5 105.6 348.5 138 358.4 161.1 382.4 160.7 360.5 150.4 356.4 144.5 341.8 159.6 322.9z"/>
  <path id="ohc" d="M173.5 267.3L154.8 252.4 141.2 264.2 132.6 256.4 141.6 296.3 156 297.6z"/>
  <path id="ods" d="M96.3 398.6L112.6 416.1 120.8 415.1 133.7 425.3 161.1 382.4 138 358.4 105.6 348.5 98 337.5 82.1 340.4 71.4 348.3 78.9 352.9 62.3 371.1 75.3 372.3 78.8 378.1 90.2 386.5z"/>
  <path id="opn" d="M175.7 229.1L144.2 224.9 137.1 215.9 110.2 224.8 112.3 242.4 132.6 256.4 141.2 264.2 154.8 252.4z"/>
  <path id="oto" d="M178 205.7L175.7 229.1 154.8 252.4 173.5 267.3 183.5 268.1 196.2 276.3 200 269.4 210.9 270.3 225.8 257.8 212.8 228z"/>
  <path id="onr" d="M240.2 312L216.6 296.3 210.9 270.3 200 269.4 196.2 276.3 183.5 268.1 173.5 267.3 156 297.6 157.1 305.9 174.8 315.6 187.6 335.1 208.1 324 231 330.8z"/>
  <path id="okn" d="M161.1 382.4L230 387.6 234.3 402.1 252 409.8 257 428.6 243.8 425.3 222.8 433.6 195.6 425.3 180.5 432.1 171.7 429 161.7 433.3 138.1 432.6 133.7 425.3z"/>
  <path id="olv" d="M295.5 383.8L246.1 380.2 241.9 356.1 246 348.1 232.5 338.2 231 330.8 240.2 312 291.2 275.8 305.6 301.2 302 334 338 325.5 331.2 355.5 323.6 360.1 302.3 361.3 303.6 369.2z"/>
  <path id="onz" d="M308.7 415.6L293.6 414.3 289.2 421.7 275.1 429.5 257 428.6 252 409.8 234.3 402.1 230 387.6 178.9 383.7 187.6 335.1 208.1 324 231 330.8 232.5 338.2 246 348.1 241.9 356.1 246.1 380.2 295.5 383.8 296.1 399.9 303.3 402.6z"/>
  <path id="osa" d="M144.5 341.8L159.6 322.9 157.1 305.9 174.8 315.6 187.6 335.1 178.9 383.7 161.1 382.4 160.7 360.5 150.4 356.4z"/>
  <path id="ozm" d="M250.1 248.3L262.4 296.3 240.2 312 216.6 296.3 210.9 270.3 225.8 257.8z"/>
  <path id="obn" d="M178 205.7L209.2 192.7 211.2 173 227.5 169.7 241.9 180 244.3 200.3 227.4 223.6 212.8 228z"/>
  <path id="opd" d="M227.5 169.7L228.2 160.8 248 166 264.8 151 286.1 155.5 281.8 172.3 303.2 199.3 280.8 230.6 250.1 248.3 251 226.4 236.5 211 244.3 200.3 241.8 179.8z"/>
  <path id="ope" d="M212.8 228L227.4 223.6 236.5 211 251 226.4 250.1 248.3 225.8 257.8z"/>
  <path id="omy" d="M137.1 215.9L120.8 178.9 108.5 185.1 99.8 178.3 86.3 184.5 82.8 193.2 110.2 224.8z"/>
  <path id="onm" d="M155.5 161.3L140.6 162 137.7 175.6 120.8 178.9 137.1 215.9 144.2 224.9 175.7 229.1 178 205.7 172.1 188.9 156.6 189.9z"/>
  <path id="otn" d="M190.6 132.6L179.5 138.6 175.1 136.3 165.6 138.6 164.7 152.4 155.5 161.3 156.6 189.9 172.1 188.9 178 205.7 209.2 192.7 211.2 173 227.5 169.7 228.2 160.8 202.2 160.4z"/>
  <path id="oil" d="M193.3 110.7L190.6 132.6 202.2 160.4 228.2 160.8 248 166 257.1 157.9 244.3 145.1 236.8 146z"/>
  <path id="opu" d="M213.6 74.2L205.7 76.4 199 85.5 200.3 95 193.3 110.7 236.8 146 244.3 145.1 231.1 99.1 219.6 94.9z"/>
  <path id="opb" d="M235.5 72.3L213.6 74.2 219.6 94.9 231.1 99.1 244.3 145.1 264.2 141.9 265.6 114 244.7 92.4z"/>
  <path id="osv" d="M865 106.9L851.9 100.6 836.8 103.3 831.8 91.6 817.4 93.8 805.8 85.7 793.3 108.6 801 111.8 781.7 142.6 808 146.3 816.7 141.7 823 157.5 841.3 160.8 848.7 138.3 863.3 124.3z"/>
  <path id="ohe" d="M796.9 84.2L786.2 100.7 774.7 100.7 773.3 109 748 87.7 743.3 102.5 750.7 152.5 773.5 155.8 774.7 164.5 797.7 164.5 806.4 154.4 808 146.3 781.7 142.6 801 111.8 793.3 108.6 805.8 85.7z"/>
  <path id="oml" d="M748 50.5L758.2 40.2 765.8 52.2 777.4 52.7 776.3 60.8 785.7 66.1 784.8 77.5 796.9 84.2 786.2 100.7 774.7 100.7 773.3 109 748 87.7 759.3 69.1z"/>
  <path id="osp" d="M748 50.5L743.3 51.2 743.3 65.8 731.8 55 716.7 78.2 723 117.3 733.7 122.2 743.3 102.5 748 87.7 759.3 69.1z"/>
  <path id="ovt" d="M690.7 128.4L715.8 179.2 743.3 182.8 750.7 152.5 743.3 102.5 733.7 122.2 723 117.3 719.7 97.2 715.7 116z"/>
  <path id="opo" d="M612.7 141.2L613.3 114.7 630.8 114.7 643 131.9 665.3 114.7 653.7 91.6 706.4 120.6 690.7 128.4 705.6 158.5 687.5 161.3 691 170.2 672.2 177.2 673 164.5 635.3 158.8z"/>
  <path id="osb" d="M597.7 80.2L653.7 91.6 665.3 114.7 643 131.9 630.8 114.7 613.3 114.7 597.7 109z"/>
  <path id="obj" d="M627.5 64.7L629.4 55.2 639.7 50.5 636.2 40.2 644 35 659.5 42.8 671.8 28.8 693.7 37 686.5 57.3 706.4 81.7 705.2 98.8 695.2 98.8 686.5 109.7 653.7 91.6 627.5 86.3z"/>
  <path id="osk" d="M725.3 29.8L731.7 37.4 738 37.4 743.3 51.2 743.3 65.8 731.8 55 716.7 78.2 719.7 97.2 715.7 116 706.4 120.6 686.5 109.7 695.2 98.8 705.2 98.8 706.4 81.7 686.5 57.3 693.7 37 705.8 38.5 715.5 31.3z"/>
  <path id="osl" d="M540.5 47.3L550.5 39.4 568 49.8 569.2 41.3 578.3 42.6 585.7 37.5 598.5 57 608.5 57.7 617.5 65.8 627.5 64.7 627.5 86.3 597.7 80.2 597.7 89.5 556.5 80.2z"/>
  <path id="okk" d="M501 59.7L525 57.3 526.5 45.5 540.5 47.3 556.5 80.2 597.7 89.5 597.7 109 546.8 128.4 521.3 107.2 536.5 98.7 525 76.5z"/>
  <path id="opp" d="M458.7 91.6L474.8 83 493 96.3 492.8 74.3 501 59.7 525 76.5 536.5 98.7 521.3 107.2 546.8 128.4 543.3 138.3 523.8 149 526 157.5 519.3 168.1 488.1 160.3 476.8 138.5 485 128.4 466.5 109.7z"/>
  <path id="ole" d="M593.7 135.8L591.5 144 575.8 147.3 560.5 136.4 543.3 138.3 546.8 128.4 597.7 109 613.3 114.7 612.7 141.2z"/>
  <path id="omt" d="M340.4 92.2L349.7 121.3 342.2 148.5 351.2 155.8 333.2 169.2 321 167 317.7 159.2 303.2 151 286.1 155.5 273.8 152.9 287.2 130 302.5 127 304.8 108.7z"/>
  <path id="odk" d="M344.9 70.7L363.8 66.7 365.5 79.2 393.8 67.7 410 86.3 391 103.5 360.3 108.7 344.9 106.3 340.4 92.2z"/>
  <path id="oza" d="M265.6 114L275.2 87.5 265.6 61.5 280.2 63.7 288.2 85 315.2 81.5 315.2 72.3 344.9 70.7 340.4 92.2 304.8 108.7 302.5 127 287.2 130 273.8 152.9 264.8 151 257.1 157.9 244.3 145.1 264.2 141.9z"/>
  <path id="okm" d="M309 61.5L299.8 60.5 292.2 54 280.2 63.7 288.2 85 315.2 81.5 315.2 72.3z"/>
  <path id="oby" d="M265.6 61.5L235.5 72.3 244.7 92.4 265.6 114 275.2 87.5z"/>
  <path id="oca" d="M347.5 46.8L340.4 43.5 330.7 48.6 320.2 47 323.8 33.2 314.2 21.8 297.6 23 284.3 30.8 277.9 25.9 272.6 29.8 265.6 23 255.3 31 252.7 42.8 235.5 53.2 235.5 72.3 265.6 61.5 280.2 63.7 292.2 54 299.8 60.5 309 61.5 315.2 72.3 344.9 70.7 351.4 59.5z"/>
  <path id="ono" d="M381 10.9L381 19.7 364.8 19.3 362.2 31.6 355.1 42 356.8 48 347.5 46.8 351.4 59.5 344.9 70.7 363.8 66.7 365.5 79.2 393.8 67.7 416.7 36.7 407.8 24.9 407.2 12.1 398.8 0.8 391.2 1.7z"/>
  <path id="ots" d="M448.5 47L449.7 61.4 446.3 70.3 449.2 79.2 444.2 93.3 410 86.3 393.8 67.7 416.7 36.7 422.8 34.7 430 48.5z"/>
  <path id="olm" d="M387 154.7L388.3 123.5 398.8 117 391 103.5 410 86.3 444.2 93.3 458.7 91.6 466.5 109.7 485 128.4 476.8 138.5 488.1 160.3 443 164.3 420 149.8z"/>
  <path id="otr" d="M331.7 198.7L329.5 179.7 333.2 169.2 321 167 317.7 159.2 303.2 151 286.1 155.5 281.8 172.3 303.2 199.3z"/>
  <path id="ork" d="M373.5 175.1L364.3 164.9 347.4 169.7 333.2 169.2 351.2 155.8 342.2 148.5 349.7 121.3 344.9 106.3 360.3 108.7 391 103.5 398.8 117 388.3 123.5 387 154.7z"/>
  <path id="obb" d="M331.7 198.7L336.7 213.5 345.8 222.3 360.8 221.4 363.8 227.1 401 216.2 405 202.2 387 186.3 388.8 166.2 382.6 161.3 373.5 175.1 364.3 164.9 347.7 169.7 333.2 169.2 329.5 179.7z"/>
  <path id="ozh" d="M310.3 262.6L285.2 256.2 280.8 230.6 303.2 199.3 331.7 198.7 336.7 213.5 326.7 222.5 331.7 236z"/>
  <path id="obr" d="M433 225.5L443.7 219.5 441.7 212.3 464.4 191.5 508.6 184.8 519.3 168.1 488.1 160.3 443 164.3 420 149.8 387 154.7 382.6 161.3 388.8 166.2 387 186.3 405 202.2 401 216.2z"/>
  <path id="ozv" d="M374.6 303L383 300.2 383.3 280.8 364.8 257.6 376.3 252.7 373.8 241.4 387 230.6 394.7 230.6 407.8 218.2 401 216.2 363.8 227.1 360.8 221.4 345.8 222.3 336.7 213.5 326.7 222.5 331.7 236 325.8 243.3 330.8 270 350.9 280.1 368.3 275.3 369.7 283.7z"/>
  <path id="ors" d="M464.4 191.5L520.8 271.8 544.3 271 543 289.4 535.8 292.5 528.9 307.4 518.5 303 518.3 308.3 509.3 312.5 503.3 312.3 502.4 320.6 495.3 322.8 493.4 327.1 482 329.8 468.8 342 462.7 333.4 474.8 316 458.7 280.3 471.8 278.4 458.7 247.3 465.2 237.7 443.7 219.5 441.7 212.3z"/>
  <path id="olc" d="M414.3 319.3L428.3 312.8 431.6 321.5 449.1 326 449.9 333.4 462.7 333.4 474.8 316 462.3 288.3 432 285.8 419.8 247.5 387 259.8 391.2 278.4z"/>
  <path id="opt" d="M435.5 236.3L433 225.5 443.7 219.5 465.2 237.7 458.7 247.3 471.8 278.4 458.7 280.3 462.3 288.3 432 285.8 419.8 247.5z"/>
  <path id="odt" d="M391.2 278.4L383.3 280.8 364.8 257.6 376.3 252.7 373.8 241.4 387 230.6 394.7 230.6 407.8 218.2 433 225.5 435.5 236.3 419.8 247.5 387 259.8z"/>
  <path id="ovk" d="M379.3 348.8L363.3 358.7 349.8 353.4 339 359.6 331.2 355.5 338 325.5 345.7 317.2 365.8 312 361.2 293.3 369.7 283.7 374.6 303 383 300.2 383.3 280.8 391.2 278.4 414.3 319.3 407.8 330.6 406 348.5 391.2 351.9z"/>
  <path id="oka" d="M319.7 280.8L322 295 305.6 301.2 302 334 338 325.5 345.7 317.2 365.8 312 361.2 293.3 369.7 283.7 368.3 275.3 350.9 280.1 330.8 270z"/>
  <path id="ozc" d="M302 273L291.2 275.8 262.4 296.3 250.1 248.3 280.8 230.6 285.2 256.2 310.3 262.6z"/>
  <path id="obs" d="M305.6 301.2L322 295 319.7 280.8 330.8 270 325.8 243.3 302 273 291.2 275.8z"/>
  <path id="ora" d="M464.4 191.5L520.8 271.8 544.3 271 551.3 261.2 529.1 258.3 533.3 229.8 511.1 200.5 508.6 184.8z"/>
  <path id="orv" d="M603.1 231L583.8 239.6 580.7 237.7 572.4 242.7 562.3 243.8 558.6 247.5 558.6 256 551.3 261.2 529.1 258.3 533.3 229.8 511.1 200.5 508.6 184.8 526 157.5 533.6 157.5 554.8 184.8 577 194.9 586.1 211.7 603.1 213.5z"/>
  <path id="oso" d="M809.8 226.3L819.3 215.7 825.2 204.9 836.1 200.8 839.8 190.2 835.3 180.9 842.5 172.5 841.3 160.8 823 157.5 816.7 141.7 808 146.3 806.4 154.4 804.3 173.3 790.8 187.7z"/>
  <path id="omi" d="M743.3 182.8L761.8 247.5 785.6 238.5 809.3 253.4 809.8 226.3 790.8 187.7 804.3 173.3 806.4 154.4 797.7 164.5 774.7 164.5 773.5 155.8 750.7 152.5z"/>
  <path id="otv" d="M713.1 235.8L714.9 245.5 728.6 244 729.3 256 737.1 262.9 740.9 279.5 761.8 285.3 778.3 271.8 801.8 273.4 813.3 266.8 809.3 253.4 785.6 238.5 761.8 247.5 743.3 182.8 715.8 179.2z"/>
  <path id="ogl" d="M603.1 213.5L592.3 199.8 615.3 187.7 635.6 189.8 635.3 158.8 612.7 141.2 614.3 165.3 593.7 174.3 573.8 157.5 554.8 184.8 577 194.9 586.1 211.7z"/>
  <path id="osn" d="M523.8 149L526 157.5 533.6 157.5 554.8 184.8 573.8 157.5 593.7 174.3 614.3 165.3 612.7 141.2 593.7 135.8 591.5 144 575.8 147.3 560.5 136.4 543.3 138.3z"/>
  <path id="oks" d="M705.6 158.5l-18.1 2.8 3.5 8.9 -18.9 7 0.8-12.7 -37.7-5.7 0.2 30.9 -20.2-2.1 -23 12.1 10.8 13.8v17.5l11.3 7.4 7.8-0.7 7.3 8.5 15.5-2 6.7 9.2 19.3-13.6 9.8 6.8 6.6-10.8 13.5-6.5 12.4 6.5 2.8-56.6L705.6 158.5zM666.9 230.5l-17.9-13.2 10.5-16.3 -9.6-18.2h27.9l10.3 30.7 -18 2.4L666.9 230.5z"/>
  <path id="oke" d="M650 182.8L677.8 182.8 688.1 213.5 670.1 215.9 666.9 230.5 649.1 217.3 659.6 201z"/>
</svg>