<?xml version="1.0" encoding="iso-8859-1"?>
<!DOCTYPE svg PUBLIC "-//W3C//DTD SVG 1.1//EN" "http://www.w3.org/Graphics/SVG/1.1/DTD/svg11.dtd">
<svg id="slovakia" x="0px" y="0px" width="870px" height="435px" viewBox="0 0 870 435" xml:space="preserve" xmlns="http://www.w3.org/2000/svg" xmlns:xlink="http://www.w3.org/1999/xlink" version="1.1" >
	<path id="ssk" d="M851.917,100.584l-15.082,2.717l-5-11.653l-14.457,2.102l-11.543-8.043l-8.938-1.54l-12.146-6.665l0.943-11.428l-9.36-5.322l1.057-8.086l-11.554-0.5l-7.667-12L747.999,50.5l-4.741,0.667l-5.256-13.748l-6.276,0.019l-6.388-7.604l-9.837,1.418l-9.667,7.25L693.67,37l-21.833-8.167l-12.306,14L644.003,35l-7.799,5.178l3.462,10.322l-10.29,4.672l-1.873,9.494L617.5,65.835l-9.001-8.177L598.506,57l-12.833-19.5l-7.327,5.115l-9.151-1.353l-1.188,8.57l-17.5-10.398l-10,7.898l-13.999-1.843l-1.528,11.843l-23.972,2.333l-8.257,14.669l0.238,21.939L474.84,83l-16.166,8.648l-14.506,1.685l5.005-14.139l-2.839-8.858l3.354-8.908l-1.188-14.386l-18.5,1.458l-7.22-13.807l-6.112,1.974l-8.918-11.748l-0.583-12.833l-8.333-11.325l-7.666,0.908l-10.174,9.25v8.75l-16.16-0.336l-2.663,12.218l-7.086,10.451l1.75,6l-9.334-1.169L340.35,43.5l-9.682,5.132L320.168,47l3.667-13.833l-9.667-11.333L297.62,23.04l-13.285,7.793l-6.416-4.914l-5.333,3.917l-7.001-6.796L255.314,31l-2.646,11.833l-17.208,10.333V72.25l-21.873,1.975l-7.846,2.141l-6.778,9.17L200.334,95l-7.081,15.7l-2.688,21.925l-11.106,5.952l-4.36-2.267l-9.515,2.267l-0.875,13.853l-9.162,8.912L140.584,162l-2.875,13.625l-16.894,3.25l-12.356,6.25l-8.625-6.875l-13.5,6.25l-9.75-7.375l-10.25-1l-4.787-7.5l-9.236,4.566l-6.977,9.309l-1.796,8.989l-11.439,7.27l-4.513,15.595l-3.885,1.601l-0.77,8.728l-5.857,5.443v10.535l3.635,9.09l-5.75,3.125l-2.5,9.958l-9,4.991v24.792l7.375,0.942l-1.25,8.816l9.49,8.464l3.135,22.681l8.75,3.97l7.625,13.136l-0.716,12.999l9.591,7.501l10.796-3.636l4.079,3.636l13,1.125l3.436,5.827l11.439,8.423l6.049,12.089l16.331,17.477l8.246-0.94l12.834,10.125l4.416,7.375l23.633,0.697l9.992-4.322l8.75,3.125l15.125-6.875l27.257,8.353l20.976-8.353l13.142,3.375l18.125,0.875l14.081-7.779l4.418-7.462l15.118,1.366l-5.415-13.033l-7.202-2.717l-0.625-16.125l8.182-14.554l-1.307-7.946l21.25-1.125l7.625-4.625l7.75,4.125l10.875-6.25l13.5,5.279l16-9.819l11.913,3.078l14.753-3.413l1.84-17.875l6.486-11.291l14.007-6.5l3.25,8.666l17.5,4.5l0.774,7.403h12.809l6.167,8.627L482,329.757l11.445-2.638l1.889-4.287l7.083-2.25l0.834-8.333l6.063,0.23l8.937-4.147l0.256-5.332l10.41,4.416l6.834-14.917l7.249-3.084L544.334,271l6.917-9.803l7.333-5.197v-8.5l3.752-3.668l10.084-1.083l8.256-5.031l3.16,1.864l19.248-8.598l11.25,7.433l7.75-0.75l7.333,8.5l15.5-2l6.667,9.205l19.25-13.622l9.75,6.811l6.584-10.811l13.5-6.5l12.416,6.5l1.81,9.75l13.69-1.5l0.75,11.974l7.75,6.943l3.833,16.584l20.878,5.749l16.5-13.455l23.457,1.57l11.582-6.6l-4-13.394l0.498-27.121l9.5-10.583l5.834-10.75l10.918-4.168l3.708-10.557l-4.543-9.274l7.293-8.38l-1.207-11.768l7.331-22.435l14.583-14.001l1.743-17.433L851.917,100.584z"/>
	<path id="kba" d="M95.168,301.642L75.334 262.833 77.158 250.723 70.887 249.029 83.798 230.52 78.485 222.293 50.437 245.886 20.709 249.75 14.959 252.875 12.459 262.833 3.459 267.824 3.459 292.616 10.834 293.558 9.584 302.375 19.074 310.838 22.209 333.519 30.959 337.489 38.584 350.625 37.869 363.624 47.459 371.125 58.256 367.489 62.334 371.125 78.885 352.941 71.401 348.255 82.084 340.373 97.965 337.489 109.334 310.838 z"/>
	<path id="ktt" d="M154.834,252.375L175.656 229.125 144.237 224.921 137.084 215.875 110.209 224.808 82.77 193.175 86.334 184.5 76.584 177.125 66.334 176.125 61.547 168.625 52.312 173.19 45.334 182.5 43.539 191.489 32.099 198.758 27.586 214.353 23.702 215.954 22.932 224.681 17.075 230.125 17.075 240.66 20.709 249.75 50.437 245.886 78.485 222.293 83.798 230.52 70.887 249.029 77.158 250.723 75.334 262.833 95.168 301.642 109.334 310.838 97.965 337.489 82.084 340.373 71.401 348.255 78.885 352.941 62.334 371.125 75.334 372.25 78.771 378.077 90.209 386.5 96.258 398.588 112.589 416.065 120.834 415.125 133.669 425.25 161.084 382.362 160.746 360.537 150.438 356.354 144.459 341.75 159.584 322.875 155.959 297.625 173.459 267.252 z"/>
	<path id="knr" d="M301.959,334L305.56 301.199 291.209 275.764 262.377 296.25 250.148 248.25 225.834 257.842 212.834 228.003 177.998 205.727 175.656 229.125 154.834 252.375 173.459 267.252 155.959 297.625 157.145 305.883 159.584 322.875 144.459 341.75 150.438 356.354 160.746 360.537 161.084 382.362 133.669 425.25 138.084 432.625 161.717 433.322 171.709 429 180.459 432.125 195.584 425.25 222.842 433.602 243.818 425.25 256.959 428.625 275.084 429.5 289.165 421.72 293.583 414.258 308.701 415.625 303.287 402.591 296.084 399.875 295.459 383.75 303.641 369.196 302.334 361.25 323.584 360.125 331.209 355.5 337.959 325.5 z"/>
	<path id="ktn" d="M281.834,172.25l4.25-16.75l-21.284-4.5l-7.702,6.876l-12.764-12.751l19.828-3.25L265.584,114l-20.92-21.609l-9.205-20.141l-21.873,1.975l-7.846,2.141l-6.778,9.17L200.334,95l-7.081,15.7l-2.688,21.925l-11.106,5.952l-4.36-2.267l-9.515,2.267l-0.875,13.853l-9.162,8.912L140.584,162l-2.875,13.625l-16.894,3.25l-12.356,6.25l-8.625-6.875l-13.5,6.25l-3.565,8.676l27.44,31.633l26.875-8.934l7.153,9.047l31.419,4.203l2.342-23.397l34.836,22.276l13,29.839l24.313-9.593l30.676-17.625l22.385-31.375L281.834,172.25z"/>
	<path id="kpo" d="M851.917,100.584l-15.082,2.717l-5-11.653l-14.457,2.102l-11.543-8.043l-8.938-1.54l-12.146-6.665l0.943-11.428l-9.36-5.322l1.057-8.086l-11.554-0.5l-7.667-12L747.999,50.5l-4.741,0.667l-5.256-13.748l-6.276,0.019l-6.388-7.604l-9.837,1.418l-9.667,7.25L693.67,37l-21.833-8.167l-12.306,14L644.003,35l-7.799,5.178l3.462,10.322l-10.29,4.672l-1.873,9.494L617.5,65.835l-9.001-8.177L598.506,57l-12.833-19.5l-7.327,5.115l-9.151-1.353l-1.188,8.57l-17.5-10.398l-10,7.898l-13.999-1.843l-1.528,11.843l-23.972,2.333l-8.257,14.669l0.238,21.939L474.84,83l-16.166,8.648l7.833,18.053l18.5,18.735L476.84,138.5l11.236,21.833l31.202,7.721l6.729-10.541L523.84,149l19.419-10.667l17.196-1.956l15.385,10.956L591.507,144l2.194-8.167l18.969,5.333l22.667,17.667l37.666,5.667l-0.833,12.723l18.874-7.027l-3.543-8.912l18.067-2.817l10.269,20.698l27.42,3.668l7.412-30.333l22.834,3.333l1.201,8.667h22.963l8.771-10.128l1.562-8.039l8.667-4.667l6.333,15.847l18.334,3.256l7.331-22.435l14.583-14.001l1.743-17.433L851.917,100.584z"/>
	<path id="kza" d="M476.84,138.5L485.007 128.437 466.507 109.701 458.674 91.648 444.168 93.333 449.173 79.194 446.334 70.336 449.689 61.428 448.501 47.042 430.001 48.5 422.782 34.693 416.669 36.667 407.751 24.919 407.168 12.085 398.834 0.761 391.168 1.669 380.995 10.919 380.995 19.669 364.834 19.333 362.171 31.551 355.085 42.002 356.835 48.002 347.501 46.833 340.35 43.5 330.668 48.632 320.168 47 323.834 33.167 314.168 21.833 297.62 23.04 284.334 30.833 277.918 25.919 272.585 29.836 265.584 23.04 255.314 31 252.668 42.833 235.459 53.167 235.459 72.25 244.664 92.39 265.584 114 264.163 141.875 244.334 145.125 257.099 157.875 264.801 151 273.751 152.892 286.084 155.5 281.834 172.25 303.209 199.25 331.667 198.667 329.501 179.666 333.209 169.176 347.375 169.681 364.342 164.883 373.501 175.125 387.001 154.667 420.001 149.833 443.001 164.312 488.077 160.333 z"/>
	<path id="kbb" d="M529.084,258.25l4.25-28.497l-22.25-29.253l-2.471-15.737l10.665-16.708l-31.202-7.721l-45.075,3.979l-23-14.479l-33,4.833l-4.379,6.636l-9.121,13.822l-9.159-10.242l-16.623,4.798l-14.51-0.505l-3.708,10.49l2.166,19.001l-28.457,0.582l-22.385,31.375l-30.676,17.625l12.229,48l28.833-20.485l14.351,25.435L301.959,334l36-8.5l-6.75,30l7.75,4.125l10.875-6.25l13.5,5.279l16-9.819l11.913,3.078l14.753-3.413l1.84-17.875l6.486-11.291l14.007-6.5l3.25,8.666l17.5,4.5l0.774,7.403h12.809l6.167,8.627L482,329.757l11.445-2.638l1.889-4.287l7.083-2.25l0.834-8.333l6.063,0.23l8.937-4.147l0.256-5.332l10.41,4.416l6.834-14.917l7.249-3.084L544.334,271l6.917-9.803L529.084,258.25z"/>
	<path id="kke" d="M842.542,172.538l-1.207-11.768l-18.334-3.256l-6.333-15.847l-8.667,4.667l-1.562,8.039l-8.771,10.128h-22.963l-1.201-8.667l-22.834-3.333l-7.412,30.333l-27.42-3.668l-10.269-20.698l-18.067,2.817l3.543,8.912l-18.874,7.027l0.833-12.723l-37.666-5.667l-22.667-17.667l-18.969-5.333L591.507,144l-15.667,3.333l-15.385-10.956l-17.196,1.956L523.84,149l2.167,8.514l-17.394,27.249l2.471,15.737l22.25,29.253l-4.25,28.497l22.167,2.947l7.333-5.197v-8.5l3.752-3.668l10.084-1.083l8.256-5.031l3.16,1.864l19.248-8.598l11.25,7.433l7.75-0.75l7.333,8.5l15.5-2l6.667,9.205l19.25-13.622l9.75,6.811l6.584-10.811l13.5-6.5l12.416,6.5l1.81,9.75l13.69-1.5l0.75,11.974l7.75,6.943l3.833,16.584l20.878,5.749l16.5-13.455l23.457,1.57l11.582-6.6l-4-13.394l0.498-27.121l9.5-10.583l5.834-10.75l10.918-4.168l3.708-10.557l-4.543-9.274L842.542,172.538z"/>
	<path id="oma" d="M48.084,312.583L55.334 284.5 75.334 262.833 77.158 250.723 70.887 249.029 83.798 230.52 78.485 222.293 50.437 245.886 20.709 249.75 14.959 252.875 12.459 262.833 3.459 267.824 3.459 292.616 10.834 293.558 9.584 302.375 19.074 310.838 z"/>
	<path id="opk" d="M48.084,312.583L57.334 320.417 95.168 301.642 75.334 262.833 55.334 284.5 z"/>
	<path id="oba" d="M19.074,310.838L48.084 312.583 57.334 320.417 68.584 343.25 61.747 347.285 56.206 357.511 58.256 367.489 47.459 371.125 37.869 363.624 38.584 350.625 30.959 337.489 22.209 333.519 z"/>
	<path id="osc" d="M95.168,301.642L57.334 320.417 68.584 343.25 61.747 347.285 56.206 357.511 58.256 367.489 62.334 371.125 78.885 352.941 71.401 348.255 82.084 340.373 97.965 337.489 109.334 310.838 z"/>
	<path id="ose" d="M20.709,249.75L17.075 240.66 17.075 230.125 22.932 224.681 23.702 215.954 27.586 214.353 67.331 210.806 82.77 193.175 110.209 224.808 75.334 262.833 77.158 250.723 70.887 249.029 83.798 230.52 78.485 222.293 50.437 245.886 z"/>
	<path id="osi" d="M27.586,214.353L67.331 210.806 82.77 193.175 86.334 184.5 76.584 177.125 66.334 176.125 61.547 168.625 52.312 173.19 45.334 182.5 43.539 191.489 32.099 198.758 z"/>
	<path id="ott" d="M110.209,224.808L75.334 262.833 95.168 301.642 109.334 310.838 141.584 296.25 132.584 256.375 112.303 242.402 z"/>
	<path id="oga" d="M155.959,297.625L141.584 296.25 109.334 310.838 97.965 337.489 105.62 348.486 137.953 358.369 161.084 382.362 160.746 360.537 150.438 356.354 144.459 341.75 159.584 322.875 z"/>
	<path id="ohc" d="M173.459,267.252L154.834 252.375 141.209 264.167 132.584 256.375 141.584 296.25 155.959 297.625 z"/>
	<path id="ods" d="M96.258,398.588L112.589 416.065 120.834 415.125 133.669 425.25 161.084 382.362 137.953 358.369 105.62 348.486 97.965 337.489 82.084 340.373 71.401 348.255 78.885 352.941 62.334 371.125 75.334 372.25 78.771 378.077 90.209 386.5 z"/>
	<path id="opn" d="M175.656,229.125L144.237 224.921 137.084 215.875 110.209 224.808 112.303 242.402 132.584 256.375 141.209 264.167 154.834 252.375 z"/>
	<path id="oto" d="M177.998,205.727L175.656 229.125 154.834 252.375 173.459 267.252 183.497 268.056 196.222 276.334 199.984 269.376 210.874 270.25 225.834 257.842 212.834 228.003 z"/>
	<path id="onr" d="M240.209,312L216.584 296.25 210.874 270.25 199.984 269.376 196.222 276.334 183.497 268.056 173.459 267.252 155.959 297.625 157.145 305.883 174.799 315.638 187.584 335.146 208.084 324 230.959 330.75 z"/>
	<path id="okn" d="M161.084,382.362L229.959 387.558 234.267 402.07 252.001 409.833 256.959 428.625 243.818 425.25 222.842 433.602 195.584 425.25 180.459 432.125 171.709 429 161.717 433.322 138.084 432.625 133.669 425.25 z"/>
	<path id="olv" d="M295.459,383.75L246.084 380.246 241.865 356.139 245.978 348.141 232.497 338.203 230.959 330.75 240.209 312 291.209 275.764 305.56 301.199 301.959 334 337.959 325.5 331.209 355.5 323.584 360.125 302.334 361.25 303.641 369.196 z"/>
	<path id="onz" d="M308.701,415.625L293.583 414.258 289.165 421.72 275.084 429.5 256.959 428.625 252.001 409.833 234.267 402.07 229.959 387.558 178.934 383.708 187.584 335.146 208.084 324 230.959 330.75 232.497 338.203 245.978 348.141 241.865 356.139 246.084 380.246 295.459 383.75 296.084 399.875 303.287 402.591 z"/>
	<path id="osa" d="M144.459,341.75L159.584 322.875 157.145 305.883 174.799 315.638 187.584 335.146 178.934 383.708 161.084 382.362 160.746 360.537 150.438 356.354 z"/>
	<path id="ozm" d="M250.148,248.25L262.377 296.25 240.209 312 216.584 296.25 210.874 270.25 225.834 257.842 z"/>
	<path id="obn" d="M177.998,205.727L209.209 192.704 211.167 173 227.469 169.681 241.865 180.021 244.334 200.25 227.355 223.625 212.834 228.003 z"/>
	<path id="opd" d="M227.469,169.681L228.209 160.75 248.034 165.968 264.801 151 286.084 155.5 281.834 172.25 303.209 199.25 280.824 230.625 250.148 248.25 250.959 226.409 236.537 210.984 244.334 200.25 241.75 179.792 z"/>
	<path id="ope" d="M212.834,228.003L227.355 223.625 236.537 210.984 250.959 226.409 250.148 248.25 225.834 257.842 z"/>
	<path id="omy" d="M137.084,215.875L120.815 178.875 108.459 185.125 99.834 178.25 86.334 184.5 82.77 193.175 110.209 224.808 z"/>
	<path id="onm" d="M155.548,161.341L140.584 162 137.709 175.625 120.815 178.875 137.084 215.875 144.237 224.921 175.656 229.125 177.998 205.727 172.084 188.875 156.584 189.875 z"/>
	<path id="otn" d="M190.565,132.625L179.459 138.577 175.099 136.31 165.584 138.577 164.709 152.43 155.548 161.341 156.584 189.875 172.084 188.875 177.998 205.727 209.209 192.704 211.167 173 227.469 169.681 228.209 160.75 202.22 160.427 z"/>
	<path id="oil" d="M193.253,110.699L190.565 132.625 202.22 160.427 228.209 160.75 248.034 165.968 257.099 157.875 244.334 145.125 236.834 146 z"/>
	<path id="opu" d="M213.587,74.224L205.741 76.365 198.963 85.535 200.334 95 193.253 110.699 236.834 146 244.334 145.125 231.084 99.125 219.584 94.875 z"/>
	<path id="opb" d="M235.459,72.25L213.587 74.224 219.584 94.875 231.084 99.125 244.334 145.125 264.163 141.875 265.584 114 244.664 92.39 z"/>
	<path id="osv" d="M864.993,106.9L851.917 100.584 836.834 103.301 831.834 91.648 817.377 93.75 805.834 85.707 793.335 108.557 801.001 111.833 781.668 142.604 808.001 146.333 816.668 141.667 823.001 157.514 841.335 160.77 848.667 138.334 863.25 124.333 z"/>
	<path id="ohe" d="M796.897,84.167L786.169 100.667 774.705 100.667 773.336 109 747.999 87.667 743.257 102.5 750.669 152.5 773.503 155.833 774.705 164.5 797.667 164.5 806.439 154.372 808.001 146.333 781.668 142.604 801.001 111.833 793.335 108.557 805.834 85.707 z"/>
	<path id="oml" d="M747.999,50.5L758.169 40.166 765.836 52.166 777.39 52.666 776.333 60.752 785.694 66.074 784.75 77.502 796.897 84.167 786.169 100.667 774.705 100.667 773.336 109 747.999 87.667 759.31 69.112 z"/>
	<path id="osp" d="M747.999,50.5L743.257 51.166 743.257 65.833 731.837 55 716.693 78.166 722.95 117.333 733.67 122.21 743.257 102.5 747.999 87.667 759.31 69.112 z"/>
	<path id="ovt" d="M690.67,128.437L715.837 179.165 743.257 182.833 750.669 152.5 743.257 102.5 733.67 122.21 722.95 117.333 719.735 97.209 715.67 116 z"/>
	<path id="opo" d="M612.67,141.166L613.337 114.666 630.837 114.666 643.001 131.921 665.337 114.666 653.67 91.648 706.394 120.614 690.67 128.437 705.569 158.466 687.501 161.284 691.044 170.195 672.17 177.222 673.003 164.5 635.337 158.833 z"/>
	<path id="osb" d="M597.67,80.166L653.67 91.648 665.337 114.666 643.001 131.921 630.837 114.666 613.337 114.666 597.67 109 z"/>
	<path id="obj" d="M627.503,64.666L629.376 55.172 639.667 50.5 636.205 40.177 644.003 35 659.532 42.833 671.837 28.833 693.67 37 686.531 57.333 706.394 81.666 705.17 98.833 695.17 98.833 686.531 109.701 653.67 91.648 627.503 86.283 z"/>
	<path id="osk" d="M725.337,29.833L731.725 37.437 738.001 37.418 743.257 51.166 743.257 65.833 731.837 55 716.693 78.166 719.735 97.209 715.67 116 706.394 120.614 686.531 109.701 695.17 98.833 705.17 98.833 706.394 81.666 686.531 57.333 693.67 37 705.833 38.501 715.5 31.251 z"/>
	<path id="osl" d="M540.506,47.333L550.506 39.435 568.006 49.833 569.195 41.263 578.346 42.615 585.673 37.5 598.506 57 608.499 57.658 617.5 65.835 627.503 64.666 627.503 86.283 597.67 80.166 597.67 89.534 556.512 80.166 z"/>
	<path id="okk" d="M501.007,59.667L524.979 57.333 526.507 45.49 540.506 47.333 556.512 80.166 597.67 89.534 597.67 109 546.84 128.437 521.34 107.167 536.507 98.667 524.979 76.5 z"/>
	<path id="opp" d="M458.674,91.648L474.84 83 492.989 96.274 492.75 74.335 501.007 59.667 524.979 76.5 536.507 98.667 521.34 107.167 546.84 128.437 543.259 138.333 523.84 149 526.007 157.514 519.279 168.054 488.077 160.333 476.84 138.5 485.007 128.437 466.507 109.701 z"/>
	<path id="ole" d="M593.702,135.833L591.507 144 575.84 147.333 560.456 136.377 543.259 138.333 546.84 128.437 597.67 109 613.337 114.666 612.67 141.166 z"/>
	<path id="omt" d="M340.35,92.219L349.668 121.333 342.168 148.5 351.168 155.833 333.209 169.176 321.001 167.049 317.67 159.227 303.209 151 286.084 155.5 273.751 152.892 287.168 130 302.501 127 304.834 108.687 z"/>
	<path id="odk" d="M344.862,70.667L363.799 66.667 365.485 79.167 393.834 67.667 410.001 86.333 391.001 103.5 360.334 108.687 344.862 106.318 340.35 92.219 z"/>
	<path id="oza" d="M265.584,114L275.169 87.478 265.584 61.5 280.168 63.667 288.168 85.021 315.168 81.5 315.168 72.25 344.862 70.667 340.35 92.219 304.834 108.687 302.501 127 287.168 130 273.751 152.892 264.801 151 257.099 157.875 244.334 145.125 264.163 141.875 z"/>
	<path id="okm" d="M308.959,61.5L299.791 60.514 292.192 54 280.168 63.667 288.168 85.021 315.168 81.5 315.168 72.25 z"/>
	<path id="oby" d="M265.584,61.5L235.459 72.25 244.664 92.39 265.584 114 275.169 87.478 z"/>
	<path id="oca" d="M347.501,46.833L340.35 43.5 330.668 48.632 320.168 47 323.834 33.167 314.168 21.833 297.62 23.04 284.334 30.833 277.918 25.919 272.585 29.836 265.584 23.04 255.314 31 252.668 42.833 235.459 53.167 235.459 72.25 265.584 61.5 280.168 63.667 292.192 54 299.791 60.514 308.959 61.5 315.168 72.25 344.862 70.667 351.432 59.486 z"/>
	<path id="ono" d="M380.995,10.919L380.995 19.669 364.834 19.333 362.171 31.551 355.085 42.002 356.835 48.002 347.501 46.833 351.432 59.486 344.862 70.667 363.799 66.667 365.485 79.167 393.834 67.667 416.669 36.667 407.751 24.919 407.168 12.085 398.834 0.761 391.168 1.669 z"/>
	<path id="ots" d="M448.501,47.042L449.689 61.428 446.334 70.336 449.173 79.194 444.168 93.333 410.001 86.333 393.834 67.667 416.669 36.667 422.782 34.693 430.001 48.5 z"/>
	<path id="olm" d="M387.001,154.667L388.334 123.5 398.834 117 391.001 103.5 410.001 86.333 444.168 93.333 458.674 91.648 466.507 109.701 485.007 128.437 476.84 138.5 488.077 160.333 443.001 164.312 420.001 149.833 z"/>
	<path id="otr" d="M331.667,198.667L329.501 179.666 333.209 169.176 321.001 167.049 317.67 159.227 303.209 151 286.084 155.5 281.834 172.25 303.209 199.25 z"/>
	<path id="ork" d="M373.501,175.125L364.342 164.883 347.375 169.681 333.209 169.176 351.168 155.833 342.168 148.5 349.668 121.333 344.862 106.318 360.334 108.687 391.001 103.5 398.834 117 388.334 123.5 387.001 154.667 z"/>
	<path id="obb" d="M331.667,198.667L336.668 213.5 345.833 222.293 360.834 221.436 363.799 227.093 400.953 216.176 405.001 202.167 387.001 186.333 388.834 166.167 382.623 161.303 373.501 175.125 364.342 164.883 347.719 169.681 333.209 169.176 329.501 179.666 z"/>
	<path id="ozh" d="M310.256,262.645L285.167 256.167 280.824 230.625 303.209 199.25 331.667 198.667 336.668 213.5 326.667 222.5 331.667 236 z"/>
	<path id="obr" d="M433,225.5L443.667 219.5 441.667 212.333 464.425 191.5 508.614 184.762 519.279 168.054 488.077 160.333 443.001 164.312 420.001 149.833 387.001 154.667 382.623 161.303 388.834 166.167 387.001 186.333 405.001 202.167 400.953 216.176 z"/>
	<path id="ozv" d="M374.584,303L382.965 300.214 383.251 280.834 364.834 257.584 376.334 252.667 373.825 241.431 387.001 230.625 394.709 230.625 407.841 218.18 400.953 216.176 363.799 227.093 360.834 221.436 345.833 222.293 336.668 213.5 326.667 222.5 331.667 236 325.815 243.281 330.751 270.001 350.918 280.084 368.284 275.25 369.655 283.703 z"/>
	<path id="ors" d="M464.425,191.5L520.834 271.794 544.334 271 543 289.416 535.751 292.5 528.917 307.417 518.507 303 518.251 308.333 509.315 312.48 503.251 312.25 502.417 320.583 495.334 322.833 493.446 327.12 482 329.757 468.834 342.03 462.667 333.403 474.834 316 458.674 280.333 471.834 278.392 458.674 247.333 465.167 237.667 443.667 219.5 441.667 212.333 z"/>
	<path id="olc" d="M414.327,319.333L428.334 312.833 431.584 321.5 449.084 326 449.859 333.403 462.667 333.403 474.834 316 462.305 288.347 432.001 285.833 419.834 247.5 387.001 259.833 391.167 278.392 z"/>
	<path id="opt" d="M435.5,236.333L433 225.5 443.667 219.5 465.167 237.667 458.674 247.333 471.834 278.392 458.674 280.333 462.305 288.347 432.001 285.833 419.834 247.5 z"/>
	<path id="odt" d="M391.167,278.392L383.251 280.834 364.834 257.584 376.334 252.667 373.825 241.431 387.001 230.625 394.709 230.625 407.841 218.18 433 225.5 435.5 236.333 419.834 247.5 387.001 259.833 z"/>
	<path id="ovk" d="M379.335,348.834L363.335 358.654 349.834 353.375 338.959 359.625 331.209 355.5 337.959 325.5 345.668 317.167 365.835 312 361.201 293.301 369.655 283.703 374.584 303 382.965 300.214 383.251 280.834 391.167 278.392 414.327 319.333 407.841 330.625 406.001 348.5 391.248 351.913 z"/>
	<path id="oka" d="M319.667,280.834L322.001 295 305.56 301.199 301.959 334 337.959 325.5 345.668 317.167 365.835 312 361.201 293.301 369.655 283.703 368.284 275.25 350.918 280.084 330.751 270.001 z"/>
	<path id="ozc" d="M301.959,273L291.209 275.764 262.377 296.25 250.148 248.25 280.824 230.625 285.167 256.167 310.256 262.645 z"/>
	<path id="obs" d="M305.56,301.199L322.001 295 319.667 280.834 330.751 270.001 325.815 243.281 301.959 273 291.209 275.764 z"/>
	<path id="ora" d="M464.425,191.5L520.834 271.794 544.334 271 551.251 261.197 529.084 258.25 533.334 229.752 511.084 200.5 508.614 184.762 z"/>
	<path id="orv" d="M603.084,230.984L583.836 239.582 580.676 237.717 572.42 242.749 562.336 243.832 558.584 247.5 558.584 256 551.251 261.197 529.084 258.25 533.334 229.752 511.084 200.5 508.614 184.762 526.007 157.514 533.584 157.514 554.834 184.762 577.021 194.874 586.084 211.669 603.084 213.5 z"/>
	<path id="oso" d="M809.833,226.25L819.333 215.667 825.167 204.917 836.084 200.75 839.792 190.192 835.25 180.918 842.542 172.538 841.335 160.77 823.001 157.514 816.668 141.667 808.001 146.333 806.439 154.372 804.334 173.25 790.834 187.667 z"/>
	<path id="omi" d="M743.257,182.833L761.795 247.5 785.584 238.5 809.334 253.372 809.833 226.25 790.834 187.667 804.334 173.25 806.439 154.372 797.667 164.5 774.705 164.5 773.503 155.833 750.669 152.5 z"/>
	<path id="otv" d="M713.084,235.75L714.894 245.5 728.584 244 729.334 255.973 737.084 262.917 740.917 279.5 761.795 285.25 778.295 271.794 801.752 273.365 813.334 266.765 809.334 253.372 785.584 238.5 761.795 247.5 743.257 182.833 715.837 179.165 z"/>
	<path id="ogl" d="M603.084,213.5L592.334 199.75 615.334 187.667 635.584 189.75 635.337 158.833 612.67 141.166 614.334 165.25 593.702 174.25 573.834 157.514 554.834 184.762 577.021 194.874 586.084 211.669 z"/>
	<path id="osn" d="M523.84,149L526.007 157.514 533.584 157.514 554.834 184.762 573.834 157.514 593.702 174.25 614.334 165.25 612.67 141.166 593.702 135.833 591.507 144 575.84 147.333 560.456 136.377 543.259 138.333 z"/>
	<path id="oks" d="M705.569,158.466l-18.067,2.817l3.543,8.912l-18.874,7.027l0.833-12.723l-37.666-5.667l0.247,30.917l-20.25-2.083l-23,12.083l10.75,13.75v17.484l11.25,7.433l7.75-0.75l7.333,8.5l15.5-2l6.667,9.205l19.25-13.622l9.75,6.811l6.584-10.811l13.5-6.5l12.416,6.5l2.753-56.585L705.569,158.466z M666.949,230.5l-17.864-13.249l10.483-16.264l-9.598-18.154h27.864l10.25,30.667l-18.006,2.396L666.949,230.5z"/>
	<path id="oke" d="M649.97,182.833L677.834 182.833 688.084 213.5 670.079 215.896 666.949 230.5 649.084 217.25 659.568 200.987 z"/>
</svg>
